<?xml version="1.0" standalone="no"?>
<!DOCTYPE svg PUBLIC "-//W3C//DTD SVG 20010904//EN"
 "http://www.w3.org/TR/2001/REC-SVG-20010904/DTD/svg10.dtd">
<svg version="1.0" xmlns="http://www.w3.org/2000/svg"
 width="225.000000pt" height="225.000000pt" viewBox="0 0 225.000000 225.000000"
 preserveAspectRatio="xMidYMid meet">
<metadata>
Created by potrace 1.15, written by Peter Selinger 2001-2017
</metadata>
<g transform="translate(0.000000,225.000000) scale(0.100000,-0.100000)"
fill="#000000" stroke="none">
<path d="M1001 2239 c-261 -30 -520 -161 -695 -351 -309 -333 -388 -820 -200
-1226 115 -248 294 -430 538 -547 301 -144 646 -147 944 -9 248 115 430 294
547 538 60 126 90 234 106 384 25 237 -45 510 -185 721 -180 270 -478 449
-816 491 -95 11 -133 11 -239 -1z m382 -203 c208 -62 397 -196 515 -363 32
-45 28 -54 -15 -37 -27 12 -61 15 -122 12 -103 -5 -158 -28 -223 -94 -23 -24
-46 -44 -49 -44 -3 0 -9 26 -12 58 -14 159 -154 282 -338 297 -41 3 -93 2
-117 -2 l-43 -8 119 -58 c129 -63 213 -128 255 -199 30 -51 57 -140 57 -182
-1 -29 -2 -28 -25 20 -54 111 -151 175 -277 182 -90 5 -152 -12 -240 -65 -53
-31 -134 -111 -123 -121 2 -2 35 5 72 16 181 54 264 62 354 36 53 -15 169 -82
169 -96 0 -5 -12 -8 -28 -8 -58 0 -142 -88 -142 -150 0 -17 7 -13 43 24 60 60
133 95 171 80 13 -5 12 -11 -8 -42 -136 -217 -240 -539 -248 -769 -1 -29 -4
-53 -6 -53 -2 0 -15 14 -29 31 -15 17 -38 35 -52 41 -24 9 -25 11 -6 18 54 21
78 89 79 225 1 82 -3 111 -23 163 -36 96 -83 122 -153 86 -61 -31 -82 -79 -57
-126 6 -11 9 -21 7 -24 -3 -2 -29 5 -59 16 -29 11 -55 20 -57 20 -2 0 0 4 3
10 3 5 -27 26 -67 47 -97 50 -106 54 -113 43 -3 -5 28 -27 70 -48 76 -38 76
-38 56 -56 -21 -19 -26 -42 -15 -70 3 -8 38 -27 77 -41 117 -43 117 -43 117
-67 0 -37 -11 -45 -94 -61 -43 -9 -87 -24 -97 -33 -45 -41 -7 -237 64 -327 20
-24 83 -23 97 2 16 31 12 52 -20 113 -16 31 -31 71 -32 90 l-3 33 100 2 100 2
-45 -17 c-37 -14 -49 -25 -69 -65 -23 -47 -23 -48 -6 -93 14 -36 26 -49 60
-66 50 -24 79 -20 124 18 30 25 31 25 31 5 0 -20 5 -21 106 -21 l107 0 -7 83
c-17 216 -18 334 -2 467 18 148 51 294 88 390 22 59 24 60 58 58 27 -2 41 -12
67 -46 31 -41 33 -48 33 -129 0 -75 2 -84 15 -73 27 22 48 114 36 158 -13 46
-46 92 -67 92 -8 0 -14 5 -14 10 0 16 159 12 209 -6 67 -23 127 -69 234 -179
l98 -100 -7 -50 c-19 -148 -117 -374 -199 -461 -5 -6 -26 -29 -46 -50 -123
-133 -256 -216 -435 -271 -82 -25 -102 -27 -259 -27 -157 0 -177 2 -259 27
-323 100 -553 330 -653 654 -25 81 -27 101 -27 258 0 157 2 177 27 258 108
349 369 591 728 672 45 10 107 14 209 11 121 -3 160 -8 233 -30z m566 -533
c52 -17 55 -20 73 -72 30 -91 48 -196 47 -283 l-1 -83 -17 65 c-27 97 -59 157
-115 214 -78 79 -130 101 -246 101 -85 0 -100 -3 -144 -27 -56 -32 -64 -34
-45 -11 22 26 117 84 173 105 62 23 191 19 275 -9z"/>
<path d="M782 1263 c-88 -75 -18 -220 95 -198 38 7 80 45 89 80 27 110 -99
190 -184 118z"/>
</g>
</svg>
